# xmcd
#
# Track frame offsets:
#	150
#	17520
#	41220
#	73045
#
# Disc length: 1286 seconds
#
# Revision: 1
# Processed by: cddbd v1.5.2PL0 Copyright (c) Steve Scherf et al.
# Submitted via: audiograbber 1.83.01
#
DISCID=2f050404
DTITLE=Miisa - You and Me (Innocence) [CDM)
DYEAR=1994
DGENRE=Dance
TTITLE0=You and Me (Innocence) (Radio Edit)
TTITLE1=You and Me (Innocence) (Extended Version)
TTITLE2=You and Me (Innocence) (Club Mix)
TTITLE3=You and Me (Innocence) (Instrumental)
EXTD=TR.
EXTT0=
EXTT1=
EXTT2=
EXTT3=
PLAYORDER=
